<svg width="125" height="30" viewBox="0 0 125 30" fill="none" xmlns="http://www.w3.org/2000/svg">
<ellipse cx="15.0013" cy="14.9997" rx="2.4544" ry="2.45449" fill="white"/>
<path d="M15.3426 0.534028C15.4352 0.362504 15.733 0.42786 15.7865 0.615282C16.0941 1.69174 16.9109 3.55096 16.9109 5.59483C16.9108 7.55082 16.6913 9.29286 15.839 10.657C15.763 10.7786 15.587 10.7733 15.5082 10.6535C14.9127 9.74812 14.4329 9.21997 14.1837 5.59483C14.0911 4.24665 14.5498 2.0026 15.3426 0.534028Z" fill="white"/>
<path d="M25.7527 5.08999C25.943 5.06198 26.0913 5.33243 25.9919 5.49708C25.3948 6.48602 24.5782 8.4877 22.9927 9.94439C21.5118 11.305 20.0317 12.3444 18.3768 12.6265C18.2208 12.6531 18.107 12.4902 18.1747 12.3473C18.8232 10.9786 19.5062 9.09354 20.973 7.74591C23.0561 5.83191 24.253 5.31081 25.7527 5.08999Z" fill="white"/>
<path d="M29.6982 15.4604C29.8296 15.5487 29.8075 15.7466 29.66 15.8042C28.6612 16.1938 26.6292 16.9087 24.4054 16.9087C22.4518 16.9087 20.7117 16.6897 19.3483 15.8399C19.2254 15.7632 19.2325 15.5862 19.3593 15.5162C20.6954 14.7789 22.46 14.1815 24.4054 14.1815C27.2587 14.1815 28.4282 14.6078 29.6982 15.4604Z" fill="white"/>
<path d="M24.972 25.7546C25.002 25.9413 24.749 26.0849 24.5886 25.9848C23.5516 25.3373 21.3279 24.3088 20.4549 23.7268C19.6617 23.198 17.8453 21.6135 17.7351 19.0618C17.7297 18.9357 17.8451 18.8408 17.9675 18.8716C19.317 19.2104 21.1617 20.2165 22.4578 21.5126C24.2533 23.3081 24.7523 24.3831 24.972 25.7546Z" fill="white"/>
<path d="M14.1808 29.8347C14.1035 29.9235 13.9676 29.9245 13.9009 29.8275C13.3738 29.0606 12.5478 26.8785 12.5478 24.6843C12.5478 22.8092 13.0387 20.9266 14.2558 19.5739C14.3496 19.4698 14.517 19.5003 14.5728 19.6288C15.1468 20.9521 15.8203 22.8372 15.8203 24.6843C15.8203 27.4861 15.2738 28.579 14.1808 29.8347Z" fill="white"/>
<path d="M4.14675 25.088C3.9981 25.0904 3.89992 24.9345 3.96679 24.8017C4.54773 23.648 5.56898 21.7069 6.82019 20.4541C7.64116 19.6321 9.21698 18.2555 10.926 18.0254C11.0563 18.0079 11.1599 18.1261 11.1294 18.254C10.8103 19.5938 9.99786 21.3661 8.505 22.8161C6.54426 24.7206 6.05331 25.0582 4.14675 25.088Z" fill="white"/>
<path d="M0.244552 14.7953C0.135546 14.7268 0.120691 14.5743 0.221151 14.4938C1.35711 13.5835 3.5983 13.1478 6.20908 13.0907C7.79786 13.0559 8.92157 13.5709 10.3304 14.4614C10.4642 14.546 10.4494 14.7452 10.3051 14.8104C9.01379 15.3942 7.52446 16.0618 6.21009 16.0906C2.98617 16.1613 1.7087 15.7152 0.244552 14.7953Z" fill="white"/>
<path d="M4.94265 4.49117C4.93232 4.35013 5.07468 4.2544 5.20544 4.30826C6.32245 4.76835 8.15574 5.57111 9.78184 7.19727C11.1659 8.58139 12.171 9.8347 12.2695 11.4626C12.2775 11.595 12.1511 11.6912 12.0242 11.6526C10.603 11.2201 8.40876 10.3159 7.63808 9.54521C6.85835 8.76545 5.08975 6.49936 4.94265 4.49117Z" fill="white"/>
<path d="M47.8672 18.3379C47.8672 18.0059 47.7988 17.7129 47.6621 17.459C47.5254 17.2051 47.3333 16.9772 47.0859 16.7754C46.8255 16.5866 46.5163 16.4173 46.1582 16.2676C45.8066 16.1113 45.4128 15.9714 44.9766 15.8477C44.306 15.6589 43.6875 15.4277 43.1211 15.1543C42.5612 14.8743 42.0827 14.5618 41.6855 14.2168C41.2884 13.8652 40.9759 13.4681 40.748 13.0254C40.5267 12.5762 40.416 12.0716 40.416 11.5117C40.416 10.9062 40.5462 10.3626 40.8066 9.88086C41.0671 9.39258 41.4186 8.97591 41.8613 8.63086C42.304 8.29232 42.8184 8.03516 43.4043 7.85938C43.9967 7.67708 44.6185 7.58594 45.2695 7.58594C45.9596 7.58594 46.6009 7.69336 47.1934 7.9082C47.7923 8.11654 48.3132 8.40951 48.7559 8.78711C49.1986 9.17122 49.5469 9.63021 49.8008 10.1641C50.0612 10.6914 50.1914 11.2773 50.1914 11.9219H47.8672C47.8346 11.5638 47.7565 11.2383 47.6328 10.9453C47.5156 10.6458 47.3496 10.3887 47.1348 10.1738C46.9134 9.96549 46.6432 9.80273 46.3242 9.68555C46.0117 9.56185 45.6504 9.5 45.2402 9.5C44.8822 9.5 44.5501 9.54883 44.2441 9.64648C43.9447 9.73763 43.6842 9.86784 43.4629 10.0371C43.2415 10.2129 43.069 10.4245 42.9453 10.6719C42.8216 10.9193 42.7598 11.196 42.7598 11.502C42.7663 11.8275 42.8509 12.1139 43.0137 12.3613C43.1764 12.6022 43.3945 12.8138 43.668 12.9961C43.9479 13.1784 44.2669 13.3379 44.625 13.4746C44.9896 13.6113 45.3704 13.7383 45.7676 13.8555C46.2689 13.9987 46.7572 14.1777 47.2324 14.3926C47.7142 14.6009 48.1569 14.8548 48.5605 15.1543C49.0618 15.5319 49.4622 15.9844 49.7617 16.5117C50.0677 17.0326 50.2207 17.6348 50.2207 18.3184C50.2207 18.9499 50.0872 19.5065 49.8203 19.9883C49.5599 20.4701 49.2083 20.8704 48.7656 21.1895C48.3164 21.5215 47.7956 21.7721 47.2031 21.9414C46.6107 22.1042 45.9857 22.1855 45.3281 22.1855C44.6315 22.1855 43.9447 22.0781 43.2676 21.8633C42.5905 21.6419 42.0013 21.3229 41.5 20.9062C41.0378 20.5156 40.6699 20.0566 40.3965 19.5293C40.1296 19.002 39.9928 18.3965 39.9863 17.7129H42.3301C42.3626 18.1491 42.4538 18.5299 42.6035 18.8555C42.7598 19.1745 42.9714 19.4382 43.2383 19.6465C43.4987 19.8613 43.8047 20.0208 44.1562 20.125C44.5143 20.2292 44.9049 20.2812 45.3281 20.2812C45.6862 20.2812 46.0182 20.2389 46.3242 20.1543C46.6367 20.0697 46.9069 19.9427 47.1348 19.7734C47.3561 19.6107 47.5319 19.4089 47.6621 19.168C47.7988 18.9271 47.8672 18.6504 47.8672 18.3379ZM59.4492 22L59.3125 20.5254C58.9544 21.0527 58.5182 21.4661 58.0039 21.7656C57.4896 22.0586 56.9134 22.2051 56.2754 22.2051C55.7285 22.2051 55.2272 22.1204 54.7715 21.9512C54.3223 21.7754 53.9349 21.5052 53.6094 21.1406C53.2904 20.776 53.043 20.3105 52.8672 19.7441C52.6914 19.1712 52.6035 18.4876 52.6035 17.6934V11.4336H54.9375V17.7129C54.9375 18.2012 54.9733 18.6113 55.0449 18.9434C55.1165 19.2689 55.2305 19.5293 55.3867 19.7246C55.543 19.9264 55.7415 20.0697 55.9824 20.1543C56.2233 20.2389 56.5065 20.2812 56.832 20.2812C57.1706 20.2812 57.4733 20.2454 57.7402 20.1738C58.0072 20.0957 58.2415 19.9915 58.4434 19.8613C58.6126 19.7441 58.7624 19.6074 58.8926 19.4512C59.0228 19.2884 59.1335 19.1094 59.2246 18.9141V11.4336H61.5684V22H59.4492ZM65.8652 11.4336L65.9336 12.5957C66.1354 12.1725 66.4121 11.8405 66.7637 11.5996C67.1217 11.3587 67.5514 11.2383 68.0527 11.2383C68.3132 11.2383 68.5475 11.2676 68.7559 11.3262C68.9642 11.3848 69.1432 11.4759 69.293 11.5996C69.4102 11.6908 69.5143 11.8014 69.6055 11.9316C69.6966 12.0553 69.7747 12.1986 69.8398 12.3613C69.931 12.2116 70.0352 12.0716 70.1523 11.9414C70.2695 11.8112 70.3965 11.7005 70.5332 11.6094C70.709 11.4922 70.9043 11.401 71.1191 11.3359C71.3405 11.2708 71.5814 11.2383 71.8418 11.2383C72.1803 11.2383 72.4896 11.2969 72.7695 11.4141C73.056 11.5247 73.3034 11.6973 73.5117 11.9316C73.7201 12.179 73.8796 12.5013 73.9902 12.8984C74.1074 13.2891 74.166 13.7611 74.166 14.3145V22H72.0176V14.2949C72.0176 14.0866 71.9948 13.9108 71.9492 13.7676C71.9036 13.6178 71.8385 13.4974 71.7539 13.4062C71.6693 13.3216 71.5651 13.2598 71.4414 13.2207C71.3242 13.1816 71.194 13.1621 71.0508 13.1621C70.901 13.1621 70.7708 13.1816 70.6602 13.2207C70.5495 13.2598 70.4518 13.3151 70.3672 13.3867C70.2891 13.4518 70.224 13.5299 70.1719 13.6211C70.1198 13.7057 70.0807 13.8034 70.0547 13.9141C70.0547 13.9401 70.0547 13.9727 70.0547 14.0117C70.0547 14.0443 70.0547 14.0931 70.0547 14.1582V22H67.9453V14.2852C67.9453 14.0768 67.9225 13.901 67.877 13.7578C67.8379 13.6081 67.776 13.4909 67.6914 13.4062C67.6068 13.3216 67.5059 13.2598 67.3887 13.2207C67.278 13.1816 67.151 13.1621 67.0078 13.1621C66.8516 13.1621 66.7116 13.1849 66.5879 13.2305C66.4707 13.2695 66.3698 13.3314 66.2852 13.416C66.2201 13.4746 66.1615 13.543 66.1094 13.6211C66.0638 13.6992 66.0215 13.7871 65.9824 13.8848V22H63.834V11.4336H65.8652ZM77.0859 11.4336H82.6914V20.0664H85.7969V22H77.0859V20.0664H80.3379V13.377H77.0859V11.4336ZM80.123 8.69922C80.123 8.51042 80.1556 8.33789 80.2207 8.18164C80.2858 8.01888 80.3802 7.87891 80.5039 7.76172C80.6211 7.65104 80.7611 7.56641 80.9238 7.50781C81.0931 7.44271 81.2819 7.41016 81.4902 7.41016C81.8418 7.41016 82.125 7.5013 82.3398 7.68359C82.5612 7.85938 82.6882 8.08724 82.7207 8.36719C82.7663 8.65365 82.7174 8.9043 82.5742 9.11914C82.431 9.32747 82.2227 9.46745 81.9492 9.53906C81.8125 9.66276 81.6497 9.74414 81.4609 9.7832C81.2721 9.82227 81.0638 9.80599 80.8359 9.73438C80.6016 9.66276 80.4225 9.53581 80.2988 9.35352C80.1816 9.16471 80.123 8.94661 80.123 8.69922ZM88.5605 22V11.4336H90.6699L90.8164 12.9375C90.9596 12.7357 91.1159 12.5501 91.2852 12.3809C91.4609 12.2051 91.6465 12.0488 91.8418 11.9121C92.1543 11.6973 92.4961 11.5312 92.8672 11.4141C93.2383 11.2969 93.6289 11.2383 94.0391 11.2383C94.5794 11.2383 95.0742 11.3164 95.5234 11.4727C95.9727 11.6289 96.3568 11.8763 96.6758 12.2148C96.9948 12.5534 97.2422 12.9863 97.418 13.5137C97.5938 14.0345 97.6816 14.666 97.6816 15.4082V22H95.3477V15.4473C95.3477 15.0111 95.2988 14.6465 95.2012 14.3535C95.1035 14.0605 94.9603 13.8262 94.7715 13.6504C94.5827 13.4746 94.3548 13.3509 94.0879 13.2793C93.821 13.2012 93.515 13.1621 93.1699 13.1621C92.8835 13.1621 92.6165 13.2012 92.3691 13.2793C92.1217 13.3509 91.8971 13.4551 91.6953 13.5918C91.5391 13.696 91.3926 13.8229 91.2559 13.9727C91.1191 14.1224 90.9987 14.2852 90.8945 14.4609V22H88.5605ZM100.143 16.6191C100.143 15.8509 100.253 15.1413 100.475 14.4902C100.696 13.8327 101.018 13.263 101.441 12.7812C101.858 12.2995 102.369 11.9219 102.975 11.6484C103.58 11.375 104.27 11.2383 105.045 11.2383C105.82 11.2383 106.51 11.375 107.115 11.6484C107.727 11.9219 108.245 12.2995 108.668 12.7812C109.085 13.263 109.404 13.8327 109.625 14.4902C109.846 15.1413 109.957 15.8509 109.957 16.6191V16.8242C109.957 17.599 109.846 18.3118 109.625 18.9629C109.404 19.6139 109.085 20.1803 108.668 20.6621C108.251 21.1439 107.737 21.5215 107.125 21.7949C106.52 22.0684 105.833 22.2051 105.064 22.2051C104.29 22.2051 103.596 22.0684 102.984 21.7949C102.372 21.5215 101.858 21.1439 101.441 20.6621C101.018 20.1803 100.696 19.6139 100.475 18.9629C100.253 18.3118 100.143 17.599 100.143 16.8242V16.6191ZM102.477 16.8242C102.477 17.2995 102.525 17.7487 102.623 18.1719C102.727 18.5951 102.887 18.9661 103.102 19.2852C103.31 19.6042 103.577 19.8581 103.902 20.0469C104.228 20.2292 104.615 20.3203 105.064 20.3203C105.501 20.3203 105.882 20.2292 106.207 20.0469C106.533 19.8581 106.799 19.6042 107.008 19.2852C107.216 18.9661 107.369 18.5951 107.467 18.1719C107.571 17.7487 107.623 17.2995 107.623 16.8242V16.6191C107.623 16.1569 107.571 15.7142 107.467 15.291C107.363 14.8678 107.21 14.4967 107.008 14.1777C106.793 13.8587 106.523 13.6048 106.197 13.416C105.878 13.2272 105.494 13.1328 105.045 13.1328C104.602 13.1328 104.218 13.2272 103.893 13.416C103.574 13.6048 103.31 13.8587 103.102 14.1777C102.887 14.4967 102.727 14.8678 102.623 15.291C102.525 15.7142 102.477 16.1569 102.477 16.6191V16.8242ZM119.488 19.1387C119.488 18.9564 119.446 18.7936 119.361 18.6504C119.283 18.5072 119.15 18.3704 118.961 18.2402C118.759 18.123 118.495 18.0124 118.17 17.9082C117.844 17.804 117.438 17.7064 116.949 17.6152C116.337 17.4915 115.777 17.3385 115.27 17.1562C114.768 16.974 114.335 16.7526 113.971 16.4922C113.613 16.2448 113.333 15.9518 113.131 15.6133C112.929 15.2747 112.828 14.8809 112.828 14.4316C112.828 14.002 112.929 13.5951 113.131 13.2109C113.339 12.8203 113.635 12.4785 114.02 12.1855C114.397 11.8926 114.853 11.6615 115.387 11.4922C115.927 11.3229 116.526 11.2383 117.184 11.2383C117.887 11.2383 118.518 11.3262 119.078 11.502C119.638 11.6712 120.113 11.9056 120.504 12.2051C120.888 12.5046 121.184 12.8594 121.393 13.2695C121.601 13.6797 121.705 14.1224 121.705 14.5977H119.371C119.371 14.4023 119.329 14.2168 119.244 14.041C119.166 13.8587 119.049 13.696 118.893 13.5527C118.71 13.3835 118.476 13.25 118.189 13.1523C117.903 13.0482 117.568 12.9961 117.184 12.9961C116.832 12.9961 116.523 13.0352 116.256 13.1133C115.995 13.1849 115.781 13.2858 115.611 13.416C115.442 13.5332 115.315 13.6732 115.23 13.8359C115.146 13.9922 115.104 14.1582 115.104 14.334C115.104 14.5163 115.139 14.6823 115.211 14.832C115.283 14.9753 115.41 15.1022 115.592 15.2129C115.761 15.3301 115.995 15.4375 116.295 15.5352C116.601 15.6328 116.985 15.7207 117.447 15.7988C118.092 15.916 118.681 16.0592 119.215 16.2285C119.749 16.3978 120.204 16.6061 120.582 16.8535C120.96 17.1139 121.253 17.4199 121.461 17.7715C121.669 18.123 121.773 18.5397 121.773 19.0215C121.773 19.4902 121.663 19.9199 121.441 20.3105C121.227 20.7012 120.921 21.0365 120.523 21.3164C120.12 21.5964 119.638 21.8145 119.078 21.9707C118.518 22.127 117.896 22.2051 117.213 22.2051C116.451 22.2051 115.774 22.1042 115.182 21.9023C114.596 21.7005 114.104 21.4336 113.707 21.1016C113.303 20.776 112.997 20.4017 112.789 19.9785C112.581 19.5553 112.477 19.1257 112.477 18.6895H114.742C114.762 19.015 114.846 19.2917 114.996 19.5195C115.152 19.7409 115.348 19.9199 115.582 20.0566C115.81 20.1999 116.07 20.304 116.363 20.3691C116.656 20.4277 116.952 20.457 117.252 20.457C117.656 20.457 118.007 20.4147 118.307 20.3301C118.613 20.2454 118.857 20.1315 119.039 19.9883C119.189 19.8711 119.299 19.7441 119.371 19.6074C119.449 19.4642 119.488 19.3079 119.488 19.1387Z" fill="white"/>
</svg>
