<svg width="582" height="51" viewBox="0 0 582 51" fill="none" xmlns="http://www.w3.org/2000/svg">
<path d="M23 30C25.7614 30 28 27.7614 28 25C28 22.2386 25.7614 20 23 20C20.2386 20 18 22.2386 18 25C18 27.7614 20.2386 30 23 30Z" fill="white"/>
<path d="M0.4134 25.0141C0.337372 24.6054 0.296422 24.4465 0.255484 24.1627C0.214545 23.8789 0.173606 23.6802 0.144364 23.4532C0.0858804 22.9877 0.0507954 22.528 0.0215537 22.0739C-0.0194853 21.1674 -0.00190794 20.2594 0.0741866 19.3551C0.226271 17.5245 0.603246 15.718 1.19708 13.9742C2.41837 10.316 4.64216 7.04913 7.63023 4.52371C10.5414 2.09919 14.1311 0.571662 17.9409 0.136161C21.3506 -0.249522 24.8058 0.187184 28 1.40758C25.1778 2.5314 22.4926 3.95532 19.9936 5.65323C18.9358 6.39787 17.9686 7.25667 17.1104 8.21311C16.3279 9.06189 15.6544 9.99958 15.1044 11.0057C14.0997 12.9615 13.3888 15.0468 12.9932 17.1982C12.7651 18.2937 12.5779 19.4289 12.4083 20.6038L12.1744 22.3407L12.0574 23.1977L11.9872 23.6007C11.9872 23.7029 11.9521 23.9016 11.9054 23.8618C12.046 25.3339 11.5833 26.8004 10.6175 27.9436C9.65164 29.0869 8.26054 29.8146 6.74563 29.9692C5.23071 30.1238 3.71405 29.6927 2.52437 28.7694C1.3347 27.8461 0.567836 26.505 0.390002 25.0368L0.4134 25.0141Z" fill="white"/>
<path d="M45.5867 25.5218C45.6627 25.938 45.7036 26.0999 45.7445 26.3889C45.7855 26.678 45.8264 26.8803 45.8557 27.1115C45.9141 27.5856 45.9492 28.0538 45.9785 28.5163C46.0195 29.4414 46.0019 30.3682 45.9258 31.2912C45.7726 33.1555 45.3957 34.9952 44.803 36.7715C43.5801 40.4967 41.3565 43.8236 38.3698 46.3968C35.4569 48.8626 31.8678 50.4162 28.0592 50.8598C24.6494 51.2555 21.1935 50.8106 18 49.5648C20.8245 48.4212 23.5117 46.9709 26.0122 45.2406C27.067 44.4807 28.0322 43.6061 28.8896 42.6334C29.6734 41.77 30.3471 40.8148 30.8956 39.7892C31.9046 37.799 32.6158 35.6745 33.0069 33.4822C33.2408 32.3664 33.4221 31.2102 33.5917 30.0136L33.8256 28.2446L33.9426 27.3775L34.0128 26.9612C34.0128 26.8572 34.0479 26.6548 34.0946 26.6953C33.9599 25.9225 33.9872 25.1306 34.175 24.3686C34.3628 23.6067 34.7069 22.891 35.1862 22.266C35.6654 21.6411 36.2695 21.1201 36.9609 20.7355C37.6523 20.3509 38.4163 20.1109 39.2054 20.0303C39.9946 19.9497 40.7921 20.0303 41.5484 20.2671C42.3047 20.5038 43.0037 20.8917 43.6021 21.4066C44.2005 21.9216 44.6854 22.5526 45.0268 23.2605C45.3682 23.9684 45.5587 24.738 45.5867 25.5218Z" fill="white"/>
<path d="M98.5398 16.2216C98.3466 14.2784 97.4886 12.733 95.9659 11.5852C94.4432 10.4375 92.5284 9.86364 90.2216 9.86364C88.5966 9.86364 87.1648 10.142 85.9261 10.6989C84.6989 11.2557 83.733 12.0284 83.0284 13.017C82.3352 13.9943 81.9886 15.108 81.9886 16.358C81.9886 17.2784 82.1875 18.0853 82.5852 18.7784C82.983 19.4716 83.517 20.0682 84.1875 20.5682C84.8693 21.0569 85.6193 21.4773 86.4375 21.8296C87.267 22.1819 88.1023 22.4773 88.9432 22.7159L92.625 23.7728C93.7386 24.0796 94.8523 24.4716 95.9659 24.9489C97.0796 25.4262 98.0966 26.0284 99.0171 26.7557C99.9489 27.4716 100.693 28.3523 101.25 29.3978C101.818 30.4319 102.102 31.6762 102.102 33.1307C102.102 34.9944 101.619 36.6705 100.653 38.1591C99.6875 39.6478 98.3011 40.8296 96.4943 41.7046C94.6875 42.5682 92.5227 43 90 43C87.625 43 85.5625 42.608 83.8125 41.8239C82.0625 41.0284 80.6875 39.9319 79.6875 38.5341C78.6875 37.1364 78.125 35.5171 78 33.6762H81.2727C81.3864 35.0512 81.8409 36.2159 82.6364 37.1705C83.4318 38.125 84.4659 38.8523 85.7386 39.3523C87.0114 39.8409 88.4318 40.0853 90 40.0853C91.7386 40.0853 93.2841 39.7955 94.6364 39.2159C96 38.625 97.0682 37.8069 97.8409 36.7614C98.625 35.7046 99.0171 34.4773 99.0171 33.0796C99.0171 31.8978 98.7102 30.9091 98.0966 30.1137C97.483 29.3069 96.625 28.6307 95.5227 28.0853C94.4318 27.5398 93.1648 27.0569 91.7216 26.6364L87.5455 25.4091C84.8068 24.5909 82.6818 23.4603 81.1705 22.0171C79.6591 20.5739 78.9034 18.733 78.9034 16.4943C78.9034 14.6193 79.4034 12.9716 80.4034 11.5511C81.4148 10.1193 82.7784 9.00568 84.4943 8.21023C86.2216 7.40341 88.1591 7 90.3068 7C92.4773 7 94.3977 7.39773 96.0682 8.19319C97.7386 8.98864 99.0625 10.0852 100.04 11.483C101.028 12.8693 101.557 14.4489 101.625 16.2216H98.5398ZM117.259 10.358V7.49432H142.572V10.358H131.509V42.4034H128.322V10.358H117.259ZM186.514 24.9489C186.514 28.5853 185.866 31.75 184.571 34.4432C183.275 37.125 181.491 39.2046 179.219 40.6819C176.957 42.1478 174.355 42.8807 171.412 42.8807C168.468 42.8807 165.86 42.1478 163.588 40.6819C161.326 39.2046 159.548 37.125 158.253 34.4432C156.968 31.75 156.326 28.5853 156.326 24.9489C156.326 21.3125 156.968 18.1534 158.253 15.4716C159.548 12.7784 161.332 10.6989 163.605 9.23296C165.878 7.75568 168.48 7.01705 171.412 7.01705C174.355 7.01705 176.957 7.75568 179.219 9.23296C181.491 10.6989 183.275 12.7784 184.571 15.4716C185.866 18.1534 186.514 21.3125 186.514 24.9489ZM183.412 24.9489C183.412 21.8239 182.889 19.1478 181.844 16.9205C180.798 14.6818 179.372 12.9716 177.565 11.7898C175.758 10.608 173.707 10.017 171.412 10.017C169.128 10.017 167.082 10.608 165.275 11.7898C163.468 12.9716 162.037 14.6761 160.98 16.9034C159.934 19.1307 159.412 21.8125 159.412 24.9489C159.412 28.0739 159.934 30.75 160.98 32.9773C162.025 35.2046 163.451 36.9148 165.258 38.108C167.065 39.2898 169.116 39.8807 171.412 39.8807C173.707 39.8807 175.758 39.2898 177.565 38.108C179.383 36.9262 180.815 35.2216 181.861 32.9944C182.906 30.7557 183.423 28.0739 183.412 24.9489ZM231.01 7.49432V42.4034H227.908L207.283 13.1705H207.01V42.4034H203.823V7.49432H206.908L227.601 36.7614H227.874V7.49432H231.01ZM249.892 42.4034V7.49432H270.142V10.358H253.079V23.5H269.068V26.3637H253.079V39.5398H270.482V42.4034H249.892ZM287.992 42.4034V7.49432H308.19V10.358H291.179V23.5H306.605V26.3637H291.179V42.4034H287.992ZM325.717 42.4034V7.49432H336.984C339.461 7.49432 341.529 7.94318 343.188 8.84091C344.859 9.72727 346.114 10.9602 346.955 12.5398C347.808 14.108 348.234 15.9091 348.234 17.9432C348.234 19.9773 347.808 21.7728 346.955 23.3296C346.114 24.8864 344.864 26.1023 343.205 26.9773C341.546 27.8523 339.489 28.2898 337.035 28.2898H327.438V25.375H336.95C338.768 25.375 340.279 25.0739 341.484 24.4716C342.7 23.8694 343.603 23.0114 344.194 21.8978C344.796 20.7841 345.097 19.4659 345.097 17.9432C345.097 16.4205 344.796 15.0909 344.194 13.9545C343.592 12.8068 342.683 11.9205 341.467 11.2955C340.262 10.6705 338.739 10.358 336.898 10.358H328.904V42.4034H325.717ZM341.109 26.6534L349.7 42.4034H346.018L337.512 26.6534H341.109ZM394.217 24.9489C394.217 28.5853 393.569 31.75 392.274 34.4432C390.979 37.125 389.194 39.2046 386.922 40.6819C384.66 42.1478 382.058 42.8807 379.115 42.8807C376.172 42.8807 373.564 42.1478 371.291 40.6819C369.03 39.2046 367.251 37.125 365.956 34.4432C364.672 31.75 364.03 28.5853 364.03 24.9489C364.03 21.3125 364.672 18.1534 365.956 15.4716C367.251 12.7784 369.035 10.6989 371.308 9.23296C373.581 7.75568 376.183 7.01705 379.115 7.01705C382.058 7.01705 384.66 7.75568 386.922 9.23296C389.194 10.6989 390.979 12.7784 392.274 15.4716C393.569 18.1534 394.217 21.3125 394.217 24.9489ZM391.115 24.9489C391.115 21.8239 390.592 19.1478 389.547 16.9205C388.501 14.6818 387.075 12.9716 385.268 11.7898C383.461 10.608 381.41 10.017 379.115 10.017C376.831 10.017 374.785 10.608 372.979 11.7898C371.172 12.9716 369.74 14.6761 368.683 16.9034C367.638 19.1307 367.115 21.8125 367.115 24.9489C367.115 28.0739 367.638 30.75 368.683 32.9773C369.729 35.2046 371.155 36.9148 372.961 38.108C374.768 39.2898 376.819 39.8807 379.115 39.8807C381.41 39.8807 383.461 39.2898 385.268 38.108C387.086 36.9262 388.518 35.2216 389.564 32.9944C390.609 30.7557 391.126 28.0739 391.115 24.9489ZM438.713 7.49432V42.4034H435.611L414.986 13.1705H414.713V42.4034H411.526V7.49432H414.611L435.304 36.7614H435.577V7.49432H438.713ZM455.481 10.358V7.49432H480.794V10.358H469.731V42.4034H466.544V10.358H455.481ZM500.757 7.49432V42.4034H497.57V7.49432H500.757ZM519.638 42.4034V7.49432H539.888V10.358H522.826V23.5H538.815V26.3637H522.826V39.5398H540.229V42.4034H519.638ZM557.738 42.4034V7.49432H569.006C571.483 7.49432 573.551 7.94318 575.21 8.84091C576.881 9.72727 578.136 10.9602 578.977 12.5398C579.829 14.108 580.256 15.9091 580.256 17.9432C580.256 19.9773 579.829 21.7728 578.977 23.3296C578.136 24.8864 576.886 26.1023 575.227 26.9773C573.568 27.8523 571.511 28.2898 569.057 28.2898H559.46V25.375H568.971C570.79 25.375 572.301 25.0739 573.506 24.4716C574.721 23.8694 575.625 23.0114 576.216 21.8978C576.818 20.7841 577.119 19.4659 577.119 17.9432C577.119 16.4205 576.818 15.0909 576.216 13.9545C575.613 12.8068 574.704 11.9205 573.488 11.2955C572.284 10.6705 570.761 10.358 568.92 10.358H560.926V42.4034H557.738ZM573.131 26.6534L581.721 42.4034H578.04L569.534 26.6534H573.131Z" fill="white"/>
</svg>
